<svg width="40" height="40" viewBox="0 0 40 40" fill="none" xmlns="http://www.w3.org/2000/svg">
<rect width="40" height="40" rx="4" fill="#ED7203"/>
<path fill-rule="evenodd" clip-rule="evenodd" d="M20 7.5C20.6904 7.5 21.25 8.05964 21.25 8.75V18.75H31.25C31.9404 18.75 32.5 19.3096 32.5 20C32.5 20.6904 31.9404 21.25 31.25 21.25H21.25V31.25C21.25 31.9404 20.6904 32.5 20 32.5C19.3096 32.5 18.75 31.9404 18.75 31.25V21.25H8.75C8.05964 21.25 7.5 20.6904 7.5 20C7.5 19.3096 8.05964 18.75 8.75 18.75H18.75V8.75C18.75 8.05964 19.3096 7.5 20 7.5Z" fill="white"/>
</svg>
